# xmcd
#
# Track frame offsets:
#	150
#	17534
#	41936
#	54822
#	73108
#	87631
#	105415
#	125113
#	152263
#	174773
#	194574
#	204693
#	225895
#	242824
#	258644
#	283957
#
# Disc length: 4032 seconds
#
# Revision: 0
# Processed by: cddbd v1.5.2PL0 Copyright (c) Steve Scherf et al.
# Submitted via: audiograbber 1.83.01
#
DISCID=de0fbe10
DTITLE=Various Artist - Legends series V 213
DYEAR=1900
DGENRE=Karaok
TTITLE0=Charlie Daniels Band - Devil Went Down to Georgia
TTITLE1=Charlie Daniels Band - Uneasy Rider
TTITLE2=Charlie Daniels Band - South's Gonna Do It Again
TTITLE3=Charlie Daniels Band - Long Haired Country Boy
TTITLE4=Charlie Daniels Band - In America
TTITLE5=Charlie Daniels Band - Still In Saigon
TTITLE6=Charlie Daniels Band - Legend of Wooley Swamp
TTITLE7=Marshall Tucker Band - Can't You See
TTITLE8=Marshall Tucker Band - Heard It In A Love Song
TTITLE9=Pure Prarie League - Amie
TTITLE10=Pure Prarie League - Falling In and Out of Love
TTITLE11=Lynyrd Skynyrd - Sweet Home Alabama
TTITLE12=Lynyrd Skynyrd - What's Your Name
TTITLE13=Brewer and Shipley - One Toke Over the Line
TTITLE14=David Alan Coe - You Never Even Called Me By My Name
TTITLE15=Ozark Mountain Daredevils - Jackie Blue
EXTD=
EXTT0=
EXTT1=
EXTT2=
EXTT3=
EXTT4=
EXTT5=
EXTT6=
EXTT7=
EXTT8=
EXTT9=
EXTT10=
EXTT11=
EXTT12=
EXTT13=
EXTT14=
EXTT15=
PLAYORDER=
